<svg xmlns="http://www.w3.org/2000/svg" width="18" height="16" viewBox="0 0 18 16">
    <path fill="#686868" d="M17 14.4a.454.454 0 0 1-.276-.095L.174 1.516a.45.45 0 0 1-.08-.631L.647.174A.452.452 0 0 1 1 0a.455.455 0 0 1 .276.095l3.58 2.765A8.7 8.7 0 0 1 9 1.8a9 9 0 0 1 8 4.99.914.914 0 0 1 0 .821 9.263 9.263 0 0 1-2.285 2.871l3.109 2.4a.45.45 0 0 1 .079.631l-.553.711a.449.449 0 0 1-.3.17.441.441 0 0 1-.05.006zM9.035 4.5A2.666 2.666 0 0 1 11.7 7.2a2.642 2.642 0 0 1-.147.836l1.106.854a3.953 3.953 0 0 0 .391-1.69 4.035 4.035 0 0 0-6.613-3.118l2.07 1.6A1.371 1.371 0 0 0 8.55 5.4a1.353 1.353 0 0 0-.262-.793 2.656 2.656 0 0 1 .747-.107zM9 12.6a9 9 0 0 1-8-4.99.912.912 0 0 1 0-.82 9.375 9.375 0 0 1 1.03-1.564l2.95 2.28a4 4 0 0 0 4.75 3.671l1.46 1.129A8.672 8.672 0 0 1 9 12.6z" transform="translate(0 1)"/>
</svg>
